<svg width="46" height="20" viewBox="0 0 46 20" fill="none" xmlns="http://www.w3.org/2000/svg">
<g clip-path="url(#clip0_75_11022)">
<path d="M10 20.0112C15.5228 20.0112 20 15.534 20 10.0112C20 4.48833 15.5228 0.0112305 10 0.0112305C4.47715 0.0112305 0 4.48833 0 10.0112C0 15.534 4.47715 20.0112 10 20.0112Z" fill="#666666"/>
<path d="M0 30C5.52285 30 10 25.5228 10 20C10 14.4772 5.52285 10 0 10C-5.52285 10 -10 14.4772 -10 20C-10 25.5228 -5.52285 30 0 30Z" fill="#141414"/>
<path d="M20 30C25.5228 30 30 25.5228 30 20C30 14.4772 25.5228 10 20 10C14.4772 10 10 14.4772 10 20C10 25.5228 14.4772 30 20 30Z" fill="#141414"/>
<path d="M0 10C5.52285 10 10 5.52285 10 0C10 -5.52285 5.52285 -10 0 -10C-5.52285 -10 -10 -5.52285 -10 0C-10 5.52285 -5.52285 10 0 10Z" fill="#141414"/>
<path d="M20 10C25.5228 10 30 5.52285 30 0C30 -5.52285 25.5228 -10 20 -10C14.4772 -10 10 -5.52285 10 0C10 5.52285 14.4772 10 20 10Z" fill="#141414"/>
</g>
<g clip-path="url(#clip1_75_11022)">
<path d="M30 16.0066C33.3137 16.0066 36 13.3203 36 10.0066C36 6.69285 33.3137 4.00659 30 4.00659C26.6863 4.00659 24 6.69285 24 10.0066C24 13.3203 26.6863 16.0066 30 16.0066Z" fill="#333333"/>
<path d="M24 22C27.3137 22 30 19.3137 30 16C30 12.6863 27.3137 10 24 10C20.6863 10 18 12.6863 18 16C18 19.3137 20.6863 22 24 22Z" fill="#141414"/>
<path d="M36 22C39.3137 22 42 19.3137 42 16C42 12.6863 39.3137 10 36 10C32.6863 10 30 12.6863 30 16C30 19.3137 32.6863 22 36 22Z" fill="#141414"/>
<path d="M24 10C27.3137 10 30 7.31371 30 4C30 0.686292 27.3137 -2 24 -2C20.6863 -2 18 0.686292 18 4C18 7.31371 20.6863 10 24 10Z" fill="#141414"/>
<path d="M36 10C39.3137 10 42 7.31371 42 4C42 0.686292 39.3137 -2 36 -2C32.6863 -2 30 0.686292 30 4C30 7.31371 32.6863 10 36 10Z" fill="#141414"/>
</g>
<g clip-path="url(#clip2_75_11022)">
<path d="M42.8 12.8031C44.3464 12.8031 45.6 11.5495 45.6 10.0031C45.6 8.45671 44.3464 7.20312 42.8 7.20312C41.2536 7.20312 40 8.45671 40 10.0031C40 11.5495 41.2536 12.8031 42.8 12.8031Z" fill="#333333"/>
<path d="M40 15.6C41.5463 15.6 42.8 14.3464 42.8 12.8C42.8 11.2536 41.5463 10 40 10C38.4536 10 37.2 11.2536 37.2 12.8C37.2 14.3464 38.4536 15.6 40 15.6Z" fill="#141414"/>
<path d="M45.6 15.6C47.1464 15.6 48.4 14.3464 48.4 12.8C48.4 11.2536 47.1464 10 45.6 10C44.0537 10 42.8 11.2536 42.8 12.8C42.8 14.3464 44.0537 15.6 45.6 15.6Z" fill="#141414"/>
<path d="M40 9.9999C41.5463 9.9999 42.8 8.7463 42.8 7.1999C42.8 5.6535 41.5463 4.3999 40 4.3999C38.4536 4.3999 37.2 5.6535 37.2 7.1999C37.2 8.7463 38.4536 9.9999 40 9.9999Z" fill="#141414"/>
<path d="M45.6 9.9999C47.1464 9.9999 48.4 8.7463 48.4 7.1999C48.4 5.6535 47.1464 4.3999 45.6 4.3999C44.0537 4.3999 42.8 5.6535 42.8 7.1999C42.8 8.7463 44.0537 9.9999 45.6 9.9999Z" fill="#141414"/>
</g>
<defs>
<clipPath id="clip0_75_11022">
<rect width="20" height="20" fill="white"/>
</clipPath>
<clipPath id="clip1_75_11022">
<rect width="12" height="12" fill="white" transform="translate(24 4)"/>
</clipPath>
<clipPath id="clip2_75_11022">
<rect width="5.6" height="5.6" fill="white" transform="translate(40 7.19995)"/>
</clipPath>
</defs>
</svg>
