<svg width="44" height="44" viewBox="0 0 44 44" fill="none" xmlns="http://www.w3.org/2000/svg">
<rect x="0.5" y="0.5" width="43" height="43" rx="21.5" fill="#1A1A1A"/>
<rect x="0.5" y="0.5" width="43" height="43" rx="21.5" stroke="#262626"/>
<path fill-rule="evenodd" clip-rule="evenodd" d="M13.6001 21.9999C13.6001 21.5029 14.003 21.0999 14.5001 21.0999L27.2656 21.0999L22.2763 16.3487C21.918 16.0042 21.9068 15.4344 22.2513 15.0762C22.5959 14.7179 23.1656 14.7067 23.5239 15.0512L30.1239 21.3512C30.3004 21.5209 30.4001 21.7551 30.4001 21.9999C30.4001 22.2448 30.3004 22.479 30.1239 22.6487L23.5239 28.9487C23.1656 29.2932 22.5959 29.282 22.2513 28.9237C21.9068 28.5655 21.918 27.9957 22.2763 27.6512L27.2656 22.8999L14.5001 22.8999C14.003 22.8999 13.6001 22.497 13.6001 21.9999Z" fill="white"/>
</svg>
